<svg width="628" height="284" viewBox="0 0 628 284" fill="none" xmlns="http://www.w3.org/2000/svg">
<path fill-rule="evenodd" clip-rule="evenodd" d="M21.44 0C9.59902 0 0 9.59902 0 21.44V262.56C0 274.401 9.599 284 21.44 284H606.56C618.401 284 628 274.401 628 262.56V21.44C628 9.59902 618.401 0 606.56 0H21.44ZM112.2 152.324C111.755 155.771 111.533 158.773 111.533 161.33C111.533 171.226 113.812 179.342 118.37 185.68C123.04 192.129 129.656 196.854 138.217 199.856C146.889 202.969 157.23 204.526 169.238 204.526C180.356 204.526 189.918 203.525 197.923 201.524C206.04 199.634 212.711 197.076 217.937 193.852C223.163 190.628 226.998 187.125 229.445 183.345C232.002 179.565 233.28 175.84 233.28 172.171V169.669C233.28 168.891 233.169 167.946 232.947 166.834H235.449H237.95H240.586H240.619C240.631 166.834 240.643 166.834 240.656 166.834C245.412 166.831 250.003 166.553 254.429 166C258.876 165.444 262.934 164.443 266.603 162.998C270.384 161.441 273.608 159.329 276.277 156.66C279.056 153.881 281.224 150.434 282.781 146.32C284.337 142.095 285.116 136.925 285.116 130.81C285.116 125.918 284.615 120.859 283.615 115.633C282.725 110.296 281.613 105.126 280.279 100.123C278.945 95.1194 277.611 90.7276 276.277 86.9473L253.261 93.2848C254.595 97.1763 255.93 101.457 257.264 106.127C258.598 110.797 259.654 115.3 260.433 119.636C261.322 123.972 261.767 127.697 261.767 130.81C261.767 134.257 261.155 136.925 259.932 138.815C258.709 140.594 256.652 141.817 253.762 142.484C250.985 143.151 247.156 143.484 242.272 143.485C239.274 143.484 236.055 143.262 232.613 142.818C229.167 142.262 225.497 141.539 221.606 140.65C217.714 139.649 213.601 138.426 209.264 136.981C205.039 135.424 200.536 133.645 195.755 131.644L190.252 155.159C193.921 156.494 197.034 157.717 199.591 158.829C202.26 159.94 204.372 160.997 205.929 161.997C207.597 162.998 208.764 163.943 209.431 164.833C210.209 165.722 210.599 166.667 210.599 167.668C210.599 169.891 209.709 171.837 207.93 173.505C206.151 175.284 203.538 176.729 200.092 177.841C196.756 178.953 192.642 179.787 187.75 180.343C182.969 180.899 177.521 181.177 171.406 181.177C165.513 181.177 160.287 180.621 155.729 179.509C151.281 178.397 147.501 176.785 144.388 174.672C141.275 172.671 138.884 170.169 137.216 167.167C135.66 164.277 134.881 160.997 134.881 157.328C134.881 154.993 135.104 152.658 135.549 150.323C135.993 147.877 136.66 145.264 137.55 142.484C138.439 139.593 139.496 136.425 140.719 132.978L120.205 125.807C117.759 131.255 115.924 136.202 114.701 140.65C113.478 144.986 112.644 148.877 112.2 152.324ZM177.243 239.716C179.578 242.051 182.358 243.218 185.582 243.218C188.695 243.218 191.364 242.051 193.587 239.716C195.811 237.492 196.923 234.824 196.923 231.711C196.923 228.486 195.811 225.706 193.587 223.372C191.364 221.037 188.695 219.869 185.582 219.869C182.358 219.869 179.578 221.037 177.243 223.372C175.019 225.706 173.907 228.486 173.907 231.711C173.907 234.824 175.019 237.492 177.243 239.716ZM148.39 239.716C150.725 242.051 153.505 243.218 156.729 243.218C159.843 243.218 162.511 242.051 164.735 239.716C166.958 237.492 168.07 234.824 168.07 231.711C168.07 228.486 166.958 225.706 164.735 223.372C162.511 221.037 159.843 219.869 156.729 219.869C153.505 219.869 150.725 221.037 148.39 223.372C146.167 225.706 145.055 228.486 145.055 231.711C145.055 234.824 146.167 237.492 148.39 239.716ZM255.763 69.6024C258.209 71.9372 261.155 73.1047 264.602 73.1047C267.938 73.1047 270.773 71.9372 273.108 69.6024C275.554 67.2675 276.777 64.3766 276.777 60.9299C276.777 57.4832 275.554 54.5368 273.108 52.0907C270.773 49.6446 267.938 48.4216 264.602 48.4216C261.155 48.4216 258.209 49.6446 255.763 52.0907C253.428 54.5368 252.261 57.4832 252.261 60.9299C252.261 64.3766 253.428 67.2675 255.763 69.6024ZM282.632 183.011L291.138 204.359C298.81 201.69 305.648 198.688 311.652 195.353C317.656 192.129 322.881 188.571 327.329 184.679C331.776 180.788 335.39 176.618 338.169 172.171C341.06 167.835 343.173 163.165 344.507 158.161C345.952 153.158 346.675 147.932 346.675 142.484C346.675 136.591 345.563 130.254 343.34 123.472C341.227 116.689 338.225 109.573 334.333 102.124L312.486 112.631C314.709 116.745 316.599 120.692 318.156 124.472C319.824 128.253 321.102 131.866 321.992 135.313C322.881 138.648 323.326 141.873 323.326 144.986C323.326 149.878 321.881 154.604 318.99 159.162C316.21 163.721 311.818 168.001 305.814 172.004C299.922 176.007 292.194 179.676 282.632 183.011ZM361.381 181.01L366.218 204.359C379.894 203.581 391.679 200.745 401.575 195.853C411.47 191.072 419.087 184.29 424.424 175.506C426.071 172.796 427.464 169.905 428.602 166.834H443.937C444.016 166.834 444.094 166.834 444.172 166.833L444.172 166.834H464.186C473.414 166.834 480.975 165.944 486.868 164.165C492.76 162.386 497.319 160.107 500.543 157.328C503.879 154.548 506.158 151.657 507.381 148.655C508.715 145.542 509.383 142.651 509.383 139.983C509.383 137.314 508.938 134.257 508.048 130.81C507.159 127.252 505.324 123.249 502.545 118.802C499.765 114.243 495.54 109.073 489.87 103.291C485.893 99.1564 480.922 94.6516 474.955 89.7772C475.145 89.6677 475.335 89.5583 475.527 89.4489C479.529 87.114 483.866 84.7791 488.535 82.4443C493.316 79.9982 498.431 77.5521 503.879 75.106C509.327 72.5488 515.109 69.9359 521.224 67.2675L511.717 46.9206C504.268 50.1449 497.263 53.3693 490.703 56.5937C484.255 59.7069 478.417 62.7089 473.192 65.5997C467.966 68.3793 463.463 70.9922 459.683 73.4382C456.014 75.7731 453.234 77.8301 451.344 79.609C450.454 80.3873 449.732 81.6104 449.176 83.2781C448.731 84.9459 448.397 86.7805 448.175 88.7818C447.953 90.7831 447.842 92.6177 447.842 94.2855C447.842 95.0638 448.675 96.3424 450.343 98.1214C452.011 99.9003 454.123 101.957 456.681 104.292C459.238 106.516 461.906 108.906 464.686 111.464C467.577 113.91 470.245 116.245 472.691 118.468C477.25 122.693 480.196 126.307 481.531 129.309C482.976 132.2 483.699 134.312 483.699 135.646C483.699 136.981 483.421 138.148 482.865 139.149C482.309 140.149 481.419 140.983 480.196 141.65C479.085 142.318 477.639 142.818 475.86 143.151C474.081 143.374 472.024 143.485 469.689 143.485H445.84L445.84 143.486C445.762 143.485 445.683 143.485 445.604 143.485H432.429C432.429 135.48 430.983 128.086 428.093 121.304C425.313 114.521 421.422 109.073 416.418 104.959C411.415 100.845 405.578 98.7885 398.907 98.7885C394.014 98.7885 389.456 100.067 385.231 102.624C381.117 105.07 377.503 108.406 374.39 112.631C371.277 116.745 368.831 121.304 367.052 126.307C365.384 131.31 364.55 136.314 364.55 141.317C364.55 147.543 365.884 152.547 368.553 156.327C371.221 159.996 375.057 162.664 380.061 164.332C385.064 166 391.068 166.834 398.073 166.834H402.596C401.001 168.715 399.104 170.327 396.905 171.67C392.903 174.117 387.955 176.007 382.062 177.341C376.169 178.786 369.276 180.009 361.381 181.01ZM408.91 144.389C408.851 138.108 407.851 133.082 405.911 129.309C403.91 125.417 401.241 123.472 397.906 123.472C395.571 123.472 393.625 124.306 392.069 125.973C390.512 127.53 389.345 129.42 388.566 131.644C387.899 133.756 387.566 135.646 387.566 137.314C387.566 138.315 387.844 139.371 388.4 140.483C388.955 141.595 390.178 142.54 392.069 143.318C393.959 144.096 396.905 144.541 400.908 144.652C403.147 144.713 405.815 144.625 408.91 144.389Z" fill="black"/>
</svg>
