<svg width="40" height="40" viewBox="0 0 40 40" fill="none" xmlns="http://www.w3.org/2000/svg">
<path fill-rule="evenodd" clip-rule="evenodd" d="M17.4052 11.2855C19.291 9.53448 22.3578 10.8718 22.3578 13.4452V26.5545C22.3578 29.1279 19.291 30.4652 17.4052 28.7142L12.4639 24.1259H10.5691C9.26701 24.1259 8.21143 23.0703 8.21143 21.7682V18.2316C8.21143 16.9294 9.26701 15.8738 10.5691 15.8738L12.4639 15.8738L17.4052 11.2855ZM20 13.4452C20 12.9305 19.3867 12.663 19.0095 13.0132L14.0683 17.6016C13.6322 18.0065 13.0591 18.2316 12.4639 18.2316H10.5691V21.7682H12.4639C13.0591 21.7682 13.6322 21.9932 14.0683 22.3982L19.0095 26.9865C19.3867 27.3367 20 27.0692 20 26.5545V13.4452Z" fill="black"/>
<path d="M25 16L31 23" stroke="black" stroke-width="2" stroke-linecap="round" stroke-linejoin="round"/>
<path d="M31 16L25 23" stroke="black" stroke-width="2" stroke-linecap="round" stroke-linejoin="round"/>
</svg>
